<?xml version="1.0" encoding="iso-8859-1"?>
<!-- Generator: Adobe Illustrator 19.0.0, SVG Export Plug-In . SVG Version: 6.00 Build 0)  -->
<svg version="1.1" id="Capa_1" xmlns="http://www.w3.org/2000/svg" xmlns:xlink="http://www.w3.org/1999/xlink" x="0px" y="0px"
	 viewBox="0 0 468.293 468.293" style="enable-background:new 0 0 468.293 468.293;" xml:space="preserve">
<path style="fill:#EBF0F3;" d="M293.855,393.348l0.25,0.25l-5.12,5.183c-0.188,0.187-0.437,0.375-0.625,0.562
	c-0.687,0.687-1.436,1.311-2.123,1.998c-23.103,22.228-52.199,35.902-83.668,39.399c-0.5,0.063-0.936,0.125-1.436,0.188
	c-4.808,0.499-9.74,0.749-14.673,0.749c-4.933,0-9.803-0.25-14.611-0.749c-0.5-0.063-0.999-0.125-1.436-0.188
	c-31.345-3.497-60.316-17.046-83.294-39.087c-0.874-0.812-1.748-1.498-2.56-2.31c-0.188-0.187-0.375-0.375-0.562-0.562l-5.12-5.183
	l0.25-0.25c-22.728-25.475-36.652-58.942-36.652-95.719c0-35.59,13.05-69.245,36.652-95.719l-0.25-0.25l5.12-5.12v-0.063
	l5.307-5.307l0.25,0.25c26.599-24.351,60.691-37.838,96.905-37.838c36.277,0,70.369,13.487,96.968,37.838l0.25-0.25l5.308,5.307
	v0.063l5.12,5.12l-0.25,0.25c23.602,26.474,36.652,60.129,36.652,95.719C330.506,334.406,316.582,367.873,293.855,393.348z"/>
<path style="fill:#E56353;" d="M337.605,297.649c0-37.389-13.703-72.69-38.472-100.421l0.26-0.263l-5.349-5.417
	c-0.013-0.013-0.024-0.028-0.037-0.042l-5.53-5.599l-0.271,0.275c-27.914-25.532-63.668-39.659-101.721-39.659
	c-38.05,0-73.804,14.126-101.718,39.659l-0.271-0.275l-5.53,5.599c-0.013,0.013-0.024,0.028-0.037,0.041l-5.349,5.417l0.26,0.263
	c-24.77,27.734-38.475,63.035-38.475,100.421c0,38.555,14.637,73.673,38.488,100.401l-0.273,0.276l5.39,5.458
	c0.185,0.187,0.392,0.344,0.577,0.53c0.851,0.853,1.791,1.612,2.662,2.445c24.16,23.12,54.552,37.371,87.387,41.006
	c0.513,0.057,1.006,0.174,1.52,0.226c5.074,0.51,10.2,0.779,15.369,0.779c5.169,0,10.295-0.269,15.369-0.779
	c0.513-0.052,1.005-0.168,1.516-0.226c32.996-3.651,63.536-18.015,87.753-41.335c0.744-0.716,1.552-1.364,2.282-2.095
	c0.193-0.193,0.408-0.357,0.6-0.551l5.39-5.458l-0.275-0.278C322.969,371.32,337.605,336.204,337.605,297.649z M274.369,400.697
	c-1.171,1.002-2.36,1.976-3.559,2.935c-2.255,1.797-4.56,3.53-6.928,5.184c-1.045,0.732-2.096,1.451-3.158,2.151
	c-2.619,1.722-5.302,3.35-8.043,4.891c-0.947,0.533-1.892,1.07-2.851,1.579c-2.889,1.534-5.849,2.947-8.857,4.273
	c-0.941,0.414-1.872,0.847-2.822,1.239c-3.03,1.254-6.132,2.362-9.268,3.398c-1.028,0.338-2.043,0.712-3.08,1.026
	c-1.578,0.479-3.212,0.818-4.813,1.241c9.893-12.538,18.126-30.372,24.014-51.901c11.552,5.546,22.366,12.719,32.101,21.496
	C276.19,399.036,275.307,399.896,274.369,400.697z M144.054,426.337c-3.119-1.031-6.205-2.133-9.219-3.381
	c-0.967-0.399-1.915-0.84-2.872-1.261c-2.987-1.318-5.927-2.72-8.796-4.243c-0.981-0.521-1.949-1.071-2.918-1.617
	c-2.716-1.529-5.377-3.143-7.973-4.849c-1.085-0.714-2.158-1.449-3.224-2.196c-2.341-1.637-4.623-3.351-6.854-5.128
	c-1.226-0.979-2.44-1.974-3.636-2.998c-0.924-0.79-1.795-1.638-2.697-2.452c9.734-8.779,20.549-15.952,32.101-21.499
	c5.887,21.529,14.12,39.364,24.013,51.901c-1.598-0.422-3.228-0.76-4.802-1.238C146.125,427.059,145.096,426.68,144.054,426.337z
	 M87.737,210.477c1.639,1.423,3.299,2.805,4.988,4.15c2.118,1.686,4.274,3.297,6.467,4.859c1.754,1.25,3.515,2.479,5.315,3.649
	c2.253,1.465,4.552,2.833,6.873,4.17c1.843,1.062,3.68,2.125,5.563,3.105c2.395,1.247,4.84,2.375,7.296,3.489
	c0.019,0.009,0.038,0.019,0.057,0.028c-3.515,17.079-5.618,35.933-6.059,55.951H51.249c1.72-30.396,13.347-58.996,33.541-81.851
	C85.74,208.893,86.769,209.637,87.737,210.477z M280.248,214.625c1.689-1.345,3.347-2.726,4.986-4.148
	c0.968-0.84,1.997-1.585,2.946-2.451c20.191,22.852,31.818,51.454,33.538,81.851h-66.983c-0.441-20.018-2.545-38.873-6.06-55.952
	c0.013-0.006,0.027-0.012,0.039-0.018c2.465-1.118,4.918-2.249,7.322-3.501c1.877-0.977,3.707-2.037,5.545-3.095
	c2.328-1.341,4.632-2.713,6.892-4.181c1.795-1.166,3.55-2.393,5.299-3.639C275.967,217.927,278.127,216.314,280.248,214.625z
	 M230.091,224.587c-1.713,0.582-3.411,1.202-5.148,1.714c-2.483,0.732-5.013,1.314-7.541,1.903
	c-1.658,0.386-3.296,0.836-4.971,1.159c-2.825,0.545-5.697,0.911-8.568,1.277c-1.429,0.182-2.836,0.453-4.274,0.59
	c-1.763,0.168-3.559,0.161-5.336,0.262v-67.559c13.883,6.102,27.624,27.983,36.235,60.511
	C230.355,224.489,230.224,224.542,230.091,224.587z M178.715,231.491c-1.776-0.101-3.572-0.093-5.335-0.262
	c-1.444-0.137-2.855-0.409-4.288-0.592c-2.866-0.366-5.732-0.73-8.552-1.274c-1.682-0.325-3.326-0.777-4.989-1.164
	c-2.521-0.587-5.043-1.167-7.519-1.897c-1.746-0.514-3.452-1.138-5.173-1.723c-0.126-0.043-0.25-0.093-0.376-0.136
	c8.611-32.528,22.352-54.409,36.232-60.511V231.491z M143.505,241.171c2.765,0.817,5.582,1.461,8.397,2.118
	c1.863,0.435,3.7,0.946,5.583,1.311c3.15,0.61,6.35,1.013,9.551,1.423c1.605,0.205,3.184,0.513,4.8,0.667
	c2.274,0.218,4.584,0.247,6.878,0.363v42.824h-44.946c0.422-18.233,2.265-35.096,5.213-50.19
	C140.489,240.186,141.981,240.72,143.505,241.171z M178.715,305.414v42.853c-13.679,0.691-27.009,3.134-39.733,7.341
	c-2.948-15.095-4.792-31.959-5.213-50.194H178.715z M178.715,363.776v67.586c-13.882-6.103-27.624-27.988-36.235-60.522
	C154.07,366.866,166.22,364.48,178.715,363.776z M194.252,363.776c12.496,0.704,24.648,3.091,36.238,7.066
	c-8.611,32.534-22.354,54.419-36.238,60.521V363.776z M194.252,348.267v-42.853h44.95c-0.422,18.235-2.265,35.099-5.214,50.195
	C221.263,351.401,207.933,348.958,194.252,348.267z M194.252,289.877v-42.824c2.295-0.116,4.605-0.146,6.88-0.363
	c1.611-0.154,3.184-0.46,4.783-0.665c3.208-0.41,6.415-0.815,9.571-1.426c1.874-0.363,3.702-0.871,5.556-1.304
	c2.827-0.66,5.654-1.306,8.429-2.127c1.523-0.45,3.012-0.985,4.518-1.483c2.948,15.094,4.792,31.957,5.213,50.191H194.252z
	 M274.917,198.885c-1.487,1.287-3.005,2.528-4.538,3.743c-1.881,1.492-3.794,2.931-5.742,4.314c-1.58,1.122-3.174,2.217-4.795,3.266
	c-2.011,1.302-4.061,2.531-6.133,3.721c-1.652,0.949-3.307,1.891-4.995,2.768c-1.227,0.636-2.491,1.188-3.735,1.786
	c-5.906-21.56-14.165-39.412-24.089-51.938c20.758,5.419,39.98,15.66,56.229,30.316C276.381,197.53,275.668,198.235,274.917,198.885
	z M127.991,218.483c-1.241-0.596-2.503-1.147-3.727-1.782c-1.694-0.879-3.354-1.825-5.012-2.777
	c-2.066-1.187-4.112-2.413-6.118-3.712c-1.623-1.051-3.221-2.148-4.804-3.272c-1.945-1.382-3.856-2.82-5.737-4.31
	c-1.534-1.216-3.052-2.457-4.539-3.744c-0.751-0.65-1.464-1.356-2.203-2.024c16.249-14.656,35.47-24.897,56.227-30.316
	C142.155,179.071,133.897,196.924,127.991,218.483z M118.236,305.414c0.441,20.019,2.545,38.875,6.06,55.954
	c-14.229,6.446-27.433,15.159-39.26,25.927c-19.554-22.101-31.956-50.56-33.743-81.881H118.236z M248.674,361.368
	c3.516-17.08,5.619-35.935,6.061-55.954h66.939c-1.787,31.321-14.189,59.778-33.742,81.879
	C276.106,376.526,262.904,367.814,248.674,361.368z"/>
<path style="fill:#2D93BA;" d="M448.709,199.622H153.626c-6.897,0-12.488-5.591-12.488-12.488V39.108
	c0-6.897,5.591-12.488,12.488-12.488h295.083c6.897,0,12.488,5.591,12.488,12.488v148.026
	C461.197,194.031,455.606,199.622,448.709,199.622z"/>
<path style="fill:#27A2DB;" d="M158.207,145.839V80.403c20.276,0,36.713-16.437,36.713-36.713h212.493
	c0,20.276,16.437,36.713,36.713,36.713v65.436c-20.276,0-36.713,16.437-36.713,36.713H194.92
	C194.92,162.276,178.483,145.839,158.207,145.839z"/>
<g>
	<circle style="fill:#1C75A1;" cx="301.168" cy="113.121" r="52.455"/>
	<path style="fill:#1C75A1;" d="M200.059,120.804h-17.134c-3.733,0-6.759-3.026-6.759-6.759v-1.847c0-3.733,3.026-6.759,6.759-6.759
		h17.134c3.733,0,6.759,3.026,6.759,6.759v1.847C206.818,117.778,203.792,120.804,200.059,120.804z"/>
	<path style="fill:#1C75A1;" d="M419.408,120.804h-17.134c-3.733,0-6.759-3.026-6.759-6.759v-1.847c0-3.733,3.026-6.759,6.759-6.759
		h17.134c3.733,0,6.759,3.026,6.759,6.759v1.847C426.167,117.778,423.141,120.804,419.408,120.804z"/>
</g>
<path style="fill:#27A2DB;" d="M299.396,146.525v-5.883c-7.365-0.751-13.976-3.679-19.826-8.782l5.883-7.011
	c4.512,3.922,9.155,6.257,13.943,7.011v-15.635c-6.073-1.449-10.52-3.358-13.34-5.722c-2.82-2.364-4.23-5.87-4.23-10.516
	s1.62-8.447,4.873-11.405c3.253-2.955,7.483-4.565,12.697-4.834v-4.03h5.155v4.109c5.909,0.433,11.497,2.446,16.763,6.047
	l-5.24,7.414c-3.548-2.525-7.385-4.083-11.523-4.676v15.15h0.243c6.178,1.453,10.716,3.414,13.615,5.883
	c2.905,2.473,4.355,6.06,4.355,10.759c0,4.702-1.666,8.532-4.997,11.484c-3.332,2.958-7.732,4.568-13.215,4.837v5.801H299.396z
	 M293.709,94.507c-1.371,1.207-2.053,2.712-2.053,4.512c0,1.8,0.538,3.223,1.613,4.269c1.069,1.049,3.115,2.056,6.126,3.023V92.369
	C296.976,92.585,295.08,93.297,293.709,94.507z M310.676,129.843c1.502-1.233,2.256-2.791,2.256-4.673
	c0-1.879-0.59-3.371-1.771-4.473c-1.187-1.102-3.391-2.135-6.611-3.102v14.504C307.128,131.834,309.168,131.08,310.676,129.843z"/>
<g>
	<path style="fill:#3A556A;" d="M76.167,19.522H48.405c-15.653,0-28.389,12.736-28.389,28.389V119.7l-7.901-7.903
		c-2.772-2.772-7.264-2.772-10.036,0c-2.772,2.769-2.772,7.264,0,10.036l20.014,20.018c0.649,0.65,1.426,1.17,2.288,1.53
		c0.858,0.359,1.785,0.552,2.733,0.552c0.948,0,1.874-0.193,2.733-0.552c0.861-0.36,1.638-0.879,2.288-1.53l20.018-20.018
		c2.772-2.772,2.772-7.264,0-10.036c-2.772-2.772-7.264-2.772-10.036,0l-7.905,7.905v-71.79c0-7.828,6.366-14.194,14.194-14.194
		h27.762c3.919,0,7.097-3.178,7.097-7.097S80.086,19.522,76.167,19.522z"/>
	<path style="fill:#3A556A;" d="M466.213,312.647l-20.014-20.014c-0.654-0.655-1.439-1.173-2.308-1.533
		c-1.735-0.718-3.689-0.718-5.424,0c-0.869,0.36-1.654,0.878-2.308,1.533l-20.014,20.014c-2.772,2.772-2.772,7.264,0,10.036
		c2.772,2.772,7.264,2.772,10.036,0l7.901-7.901v71.787c0,7.828-6.366,14.194-14.194,14.194h-27.758
		c-3.919,0-7.097,3.178-7.097,7.097c0,3.919,3.178,7.097,7.097,7.097h27.758c15.653,0,28.389-12.736,28.389-28.389v-71.787
		l7.901,7.901c1.386,1.386,3.202,2.079,5.018,2.079s3.632-0.693,5.018-2.079C468.986,319.911,468.986,315.42,466.213,312.647z"/>
</g>
<g>
</g>
<g>
</g>
<g>
</g>
<g>
</g>
<g>
</g>
<g>
</g>
<g>
</g>
<g>
</g>
<g>
</g>
<g>
</g>
<g>
</g>
<g>
</g>
<g>
</g>
<g>
</g>
<g>
</g>
</svg>
