<?xml version="1.0" encoding="iso-8859-1"?>
<!-- Generator: Adobe Illustrator 19.0.0, SVG Export Plug-In . SVG Version: 6.00 Build 0)  -->
<svg xmlns="http://www.w3.org/2000/svg" xmlns:xlink="http://www.w3.org/1999/xlink" version="1.1" id="Layer_1" x="0px" y="0px" viewBox="0 0 508.465 508.465" style="enable-background:new 0 0 508.465 508.465;" xml:space="preserve" width="512" height="512">
<g>
	<g>
		<g>
			<polygon style="fill:#D9EEF7;" points="373.464,467.443 381.423,499.279 126.732,499.279 134.691,467.443 166.527,467.443      341.627,467.443    "/>
			<polygon style="fill:#AAC4DA;" points="325.709,403.77 341.627,467.443 166.527,467.443 182.445,403.77    "/>
			<polygon style="fill:#D9EEF7;" points="500.809,324.179 500.809,403.77 325.709,403.77 182.445,403.77 7.345,403.77      7.345,324.179    "/>
			<rect x="7.345" y="53.57" style="fill:#34E0D2;" width="493.464" height="270.609"/>
			<rect x="7.345" y="53.57" style="fill:#1BB2A3;" width="47.755" height="270.609"/>
			<rect x="7.345" y="324.179" style="fill:#AAC4DA;" width="47.755" height="79.591"/>
			<g>
				<polygon style="fill:#95ADC0;" points="182.445,403.77 166.527,467.443 214.282,467.443 230.2,403.77     "/>
			</g>
		</g>
		<g>
			<g id="XMLID_80_">
				<g>
					<polygon style="fill:#FD6D8A;" points="413.259,53.57 413.259,228.67 333.668,228.67 285.914,276.425 285.914,228.67        206.323,228.67 206.323,53.57 206.323,5.815 413.259,5.815      "/>
					<path style="fill:#FFBF78;" d="M198.364,300.302v23.877H55.1v-23.877c0-39.557,32.075-71.632,71.632-71.632       S198.364,260.745,198.364,300.302z"/>
					<path style="fill:#FFBF78;" d="M126.732,133.161c26.345,0,47.755,21.41,47.755,47.755s-21.41,47.755-47.755,47.755       s-47.755-21.41-47.755-47.755S100.387,133.161,126.732,133.161z"/>
				</g>
			</g>
		</g>
	</g>
	<g>
		<g>
			<g id="XMLID_45_">
				<g>
					<g>
						<rect x="190.56" y="358.16" style="fill:#FFFFFF;" width="87.55" height="15"/>
					</g>
					<g>
						<rect x="325.864" y="358.16" style="fill:#FFFFFF;" width="15.918" height="15"/>
					</g>
					<g>
						<polygon style="fill:#FFFFFF;" points="476.628,174.642 461.628,174.642 461.628,94.592 437.292,94.592 437.292,79.592         476.628,79.592       "/>
					</g>
					<g>
						<rect x="461.628" y="222.396" style="fill:#FFFFFF;" width="15" height="15.918"/>
					</g>
					<g>
						<rect x="118.928" y="286.528" style="fill:#FFFFFF;" width="15.918" height="15"/>
					</g>
					<g>
						<polygon style="fill:#FFFFFF;" points="46.837,126.887 31.837,126.887 31.837,79.592 87.092,79.592 87.092,94.592         46.837,94.592       "/>
					</g>
					<g>
						<rect x="238.314" y="103.469" style="fill:#FFFFFF;" width="143.264" height="15"/>
					</g>
					<g>
						<rect x="301.987" y="167.142" style="fill:#FFFFFF;" width="79.591" height="15"/>
					</g>
					<g>
						<rect x="333.823" y="39.796" style="fill:#FFFFFF;" width="15.918" height="15"/>
					</g>
					<g>
						<path style="fill:#231F20;" d="M508.465,412.955v-365.2h-87.551V0H309.946v15h95.968v207.855h-75.197l-37.148,37.147v-37.147        h-79.591V15h72.091V0h-87.091v47.755H0v365.2h172.995l-12.169,48.673H128.99l-11.709,46.837h273.902l-11.709-46.837h-31.836        l-12.169-48.673H508.465z M15,397.955v-64.591h326.782v-15H206.019v-16.377c0-32.95-20.249-61.249-48.952-73.137        c15.083-9.876,25.075-26.913,25.075-46.249c0-30.468-24.787-55.255-55.255-55.255s-55.255,24.787-55.255,55.255        c0,19.336,9.991,36.373,25.075,46.249c-28.703,11.888-48.952,40.187-48.952,73.137v16.377H15V62.755h183.978v175.101h79.591        v58.36l58.361-58.36h83.984V62.755h72.551v255.609H365.66v15h127.805v64.591H331.72h-5.855H182.601h-5.855H15z         M86.632,182.601c0-22.196,18.059-40.255,40.255-40.255s40.255,18.059,40.255,40.255s-18.059,40.255-40.255,40.255        S86.632,204.797,86.632,182.601z M191.019,318.364H62.755v-16.377c0-35.362,28.77-64.132,64.132-64.132        s64.132,28.77,64.132,64.132V318.364z M367.764,476.628l4.209,16.837h-235.48l4.209-16.837h97.613v-15h-62.026l12.167-48.673        h131.553l12.167,48.673h-69.985v15H367.764z"/>
						<rect x="294.028" y="358.16" style="fill:#231F20;" width="15.918" height="15"/>
						<rect x="461.628" y="190.56" style="fill:#231F20;" width="15" height="15.918"/>
						<rect x="461.628" y="254.232" style="fill:#231F20;" width="15" height="15.918"/>
						<rect x="118.928" y="254.691" style="fill:#231F20;" width="15.918" height="15"/>
						<rect x="238.314" y="71.632" style="fill:#231F20;" width="143.264" height="15"/>
						<rect x="238.314" y="135.305" style="fill:#231F20;" width="143.264" height="15"/>
						<rect x="365.66" y="39.796" style="fill:#231F20;" width="15.918" height="15"/>
						<rect x="270.15" y="167.142" style="fill:#231F20;" width="15.918" height="15"/>
					</g>
				</g>
			</g>
		</g>
	</g>
</g>















</svg>
